<svg width="22" height="22" viewBox="0 0 22 22" fill="none" xmlns="http://www.w3.org/2000/svg">
<path fill-rule="evenodd" clip-rule="evenodd" d="M9.68982 7.16793C9.74289 7.11473 9.80593 7.07252 9.87534 7.04372C9.94475 7.01492 10.0192 7.00009 10.0943 7.00009C10.1694 7.00009 10.2439 7.01492 10.3133 7.04372C10.3827 7.07252 10.4457 7.11473 10.4988 7.16793L17.3544 14.0236C17.4617 14.1309 17.522 14.2764 17.522 14.4281C17.522 14.5798 17.4617 14.7253 17.3544 14.8326C17.2472 14.9398 17.1017 15.0001 16.95 15.0001C16.7982 15.0001 16.6527 14.9398 16.5455 14.8326L10.0943 8.38024L3.64314 14.8326C3.53586 14.9398 3.39036 15.0001 3.23865 15.0001C3.08694 15.0001 2.94144 14.9398 2.83417 14.8326C2.72689 14.7253 2.66663 14.5798 2.66663 14.4281C2.66663 14.2764 2.72689 14.1309 2.83417 14.0236L9.68982 7.16793Z" fill="#0C0C0C"/>
</svg>
