<svg width="22" height="22" viewBox="0 0 22 22" fill="none" xmlns="http://www.w3.org/2000/svg">
<g clip-path="url(#clip0_61_15)">
<path d="M6.52666 7.42728L6.52649 7.42753L6.52456 7.43036C6.50725 7.45569 6.49012 7.48124 6.47317 7.507L6.21006 7.90692L5.73139 7.91291C5.00087 7.92205 4.28666 8.13016 3.66529 8.5148C3.04401 8.89939 2.53926 9.44599 2.20527 10.0959C1.87128 10.7458 1.72068 11.4744 1.76964 12.2034C1.8032 12.7031 1.92963 13.19 2.14042 13.6399C2.23643 13.8449 2.34994 14.0421 2.48016 14.2294L2.48293 14.2334L2.5414 14.3173C2.66213 14.4819 2.79489 14.6365 2.93837 14.7801C3.2262 15.068 3.5574 15.3118 3.9206 15.5015C4.49525 15.8015 5.13397 15.9579 5.78222 15.9575H5.78285H16.5552H16.5555C17.1151 15.9577 17.6643 15.8064 18.1447 15.5196C18.5326 15.2881 18.864 14.9752 19.1169 14.604L19.1397 14.5702C19.1914 14.4921 19.2397 14.4115 19.2844 14.3285C19.3358 14.2332 19.382 14.1354 19.4229 14.0357C19.578 13.6581 19.6573 13.2526 19.6552 12.8422C19.6525 12.3236 19.5196 11.8139 19.2689 11.3599L20.058 10.9241L19.2689 11.3599C19.0182 10.9059 18.6575 10.522 18.22 10.2435C17.7823 9.96493 17.282 9.80058 16.7647 9.76561L16.1142 9.72163L15.9523 9.09008C15.8919 8.85453 15.8155 8.62439 15.7239 8.40113C15.7238 8.40094 15.7238 8.40074 15.7237 8.40055L15.7227 8.39812L15.7222 8.39694L15.7219 8.39612L15.7218 8.39595L15.7216 8.39551L15.7212 8.39452L15.7116 8.37127C15.7116 8.37127 15.7116 8.37126 15.7116 8.37126C15.4196 7.67175 14.9786 7.0408 14.4158 6.52419C13.6659 5.83578 12.7322 5.38004 11.7281 5.21235C10.7241 5.04467 9.69294 5.17226 8.76003 5.57962C8.09607 5.86955 7.50222 6.29231 7.0133 6.81856L6.52666 7.42728ZM6.52666 7.42728C6.67407 7.2119 6.8369 7.00845 7.01328 6.81858L6.52666 7.42728Z" stroke="black" stroke-width="1.80282"/>
</g>
<defs>
<clipPath id="clip0_61_15">
<rect width="21.3333" height="21.3333" fill="white" transform="translate(0.333374 0.333252)"/>
</clipPath>
</defs>
</svg>
