<svg width="29" height="28" viewBox="0 0 29 28" fill="none" xmlns="http://www.w3.org/2000/svg">
<g clip-path="url(#clip0_61_89)">
<path d="M17.4598 15.3335L15.4598 0.666931H15.3105C8.03797 0.688163 2.14771 6.57839 2.12648 13.8509V14.0002L17.4598 15.3335Z" fill="#ED6C47"/>
<path d="M15.6092 0.666931H15.4598V14.0003L22.1265 16.6669L28.7932 14.0003V13.8509C28.7719 6.57842 22.8817 0.688163 15.6092 0.666931Z" fill="#FF8F6B"/>
<path d="M28.7932 14.0001V14.1468C28.7723 21.4209 22.8806 27.3126 15.6065 27.3334H15.3131C8.03902 27.3126 2.14735 21.4209 2.12648 14.1468V14.0001H28.7932Z" fill="#D35230"/>
<path opacity="0.1" d="M16.1265 7.22034V21.447C16.1232 21.9414 15.8236 22.3855 15.3665 22.5737C15.2209 22.6352 15.0645 22.667 14.9065 22.667H5.27316C5.08649 22.4537 4.9065 22.227 4.73983 22.0003C3.04136 19.7346 2.12429 16.9787 2.1265 14.147V13.8537C2.1226 11.2996 2.86906 8.80055 4.27316 6.667C4.41983 6.44034 4.57315 6.21367 4.73983 6.00034H14.9065C15.5782 6.00543 16.1214 6.54867 16.1265 7.22034Z" fill="#2F2F2F"/>
<path opacity="0.2" d="M15.4599 7.88669V22.1134C15.4598 22.2714 15.4281 22.4278 15.3665 22.5734C15.1783 23.0305 14.7342 23.33 14.2398 23.3334H5.87984C5.66891 23.1192 5.46652 22.8968 5.27316 22.6667C5.0865 22.4534 4.9065 22.2267 4.73983 22C3.04136 19.7343 2.12429 16.9784 2.1265 14.1467V13.8534C2.1226 11.2992 2.86906 8.80023 4.27316 6.66669H14.2398C14.9115 6.67176 15.4548 7.21501 15.4599 7.88669Z" fill="#2F2F2F"/>
<path opacity="0.2" d="M15.4598 7.88668V20.78C15.4547 21.4517 14.9115 21.9949 14.2398 22H4.73983C3.04136 19.7343 2.12429 16.9784 2.1265 14.1467V13.8534C2.1226 11.2992 2.86906 8.80023 4.27316 6.66669H14.2398C14.9115 6.67175 15.4547 7.215 15.4598 7.88668Z" fill="#2F2F2F"/>
<path opacity="0.2" d="M14.7932 7.88668V20.78C14.7881 21.4517 14.2448 21.9949 13.5732 22H4.73983C3.04136 19.7343 2.12429 16.9784 2.1265 14.1467V13.8534C2.1226 11.2992 2.86906 8.80023 4.27316 6.66669H13.5732C14.2448 6.67175 14.7881 7.215 14.7932 7.88668Z" fill="#2F2F2F"/>
<path d="M1.34866 6.66669H13.5714C14.2463 6.66669 14.7934 7.2138 14.7934 7.88868V20.1113C14.7934 20.7862 14.2463 21.3334 13.5714 21.3334H1.34866C0.67378 21.3334 0.126663 20.7862 0.126663 20.1114V7.88868C0.126663 7.2138 0.67378 6.66669 1.34866 6.66669Z" fill="url(#paint0_linear_61_89)"/>
<path d="M7.5937 9.92599C8.38935 9.8723 9.17815 10.1034 9.81903 10.578C10.3535 11.0552 10.6392 11.7516 10.5937 12.4667C10.6024 12.9638 10.47 13.4532 10.2117 13.878C9.95022 14.2955 9.57352 14.6285 9.12702 14.8367C8.61658 15.0741 8.05851 15.1913 7.49569 15.1793H5.94971V18.0527H4.36638V9.92599H7.5937ZM5.94838 13.938H7.31104C7.74304 13.9697 8.17167 13.8419 8.51571 13.5787C8.80026 13.3057 8.94941 12.9208 8.92304 12.5273C8.92304 11.6318 8.40259 11.184 7.36172 11.184H5.94839V13.938H5.94838Z" fill="white"/>
</g>
<defs>
<linearGradient id="paint0_linear_61_89" x1="2.67457" y1="5.71184" x2="12.2454" y2="22.2882" gradientUnits="userSpaceOnUse">
<stop stop-color="#CA4C28"/>
<stop offset="0.5" stop-color="#C5401E"/>
<stop offset="1" stop-color="#B62F14"/>
</linearGradient>
<clipPath id="clip0_61_89">
<rect width="28.6667" height="26.6667" fill="white" transform="translate(0.126709 0.66684)"/>
</clipPath>
</defs>
</svg>
