<svg width="21" height="20" viewBox="0 0 21 20" fill="none" xmlns="http://www.w3.org/2000/svg">
<path d="M11.4304 2.86891C11.653 2.96283 11.7977 3.18096 11.7977 3.42258V16.6432C11.7977 16.8853 11.6524 17.1038 11.4292 17.1974C11.2059 17.291 10.9483 17.2416 10.7756 17.0719L7.25841 13.6166H5.1874C4.19173 13.6166 3.38458 12.8094 3.38458 11.8137V8.22134C3.38458 7.22567 4.19173 6.41852 5.1874 6.41852H7.2599L10.7774 2.99211C10.9505 2.82352 11.2078 2.77498 11.4304 2.86891ZM10.5958 4.84687L7.92352 7.44993C7.81131 7.55923 7.66085 7.6204 7.50421 7.6204H5.1874C4.85551 7.6204 4.58646 7.88945 4.58646 8.22134V11.8137C4.58646 12.1456 4.85551 12.4147 5.1874 12.4147H7.50421C7.66174 12.4147 7.81297 12.4765 7.92535 12.5869L10.5958 15.2104V4.84687ZM13.1333 6.6541C13.3399 6.39438 13.718 6.35132 13.9777 6.55794L13.9787 6.55875L13.9799 6.55965L13.9824 6.56173L13.9889 6.56701L14.0069 6.58208C14.021 6.59414 14.0394 6.61024 14.0614 6.63043C14.1055 6.67078 14.1641 6.72761 14.2324 6.80127C14.3688 6.94841 14.5448 7.16396 14.7191 7.45057C15.0694 8.02691 15.4085 8.88436 15.4085 10.0312C15.4085 11.1779 15.0695 12.0363 14.7194 12.6134C14.5452 12.9005 14.3694 13.1165 14.2331 13.264C14.1649 13.3379 14.1063 13.3949 14.0623 13.4353C14.0387 13.4571 14.0145 13.4782 13.9899 13.4989L13.9798 13.5071L13.9788 13.508C13.9788 13.508 13.4423 13.7993 13.1342 13.4137C12.928 13.1557 12.9687 12.7801 13.2245 12.5722L13.2264 12.5706L13.2255 12.5714L13.2275 12.5698L13.2264 12.5706C13.2299 12.5676 13.2374 12.5611 13.2483 12.551C13.2702 12.5309 13.3057 12.4967 13.3503 12.4484C13.4398 12.3516 13.5649 12.1993 13.6918 11.9901C13.9436 11.5749 14.2066 10.9296 14.2066 10.0312C14.2066 9.13276 13.9437 8.48874 13.6921 8.07492C13.5653 7.86644 13.4403 7.71473 13.351 7.61838C13.3064 7.5703 13.271 7.53633 13.2492 7.51631C13.2383 7.50632 13.2308 7.49984 13.2274 7.49687L13.2286 7.49778C12.9693 7.29108 12.9268 6.91368 13.1333 6.6541ZM15.1787 4.15434C14.919 3.94761 14.541 3.99051 14.3342 4.25015C14.1276 4.50967 14.171 4.88804 14.4303 5.09483L14.4436 5.10592C14.4566 5.11691 14.4777 5.13505 14.5057 5.16027C14.5618 5.21073 14.6454 5.28929 14.7474 5.39524C14.9518 5.60748 15.228 5.92741 15.5049 6.34925C16.0583 7.19217 16.6092 8.43256 16.6092 10.0378C16.6092 11.6428 16.0584 12.8806 15.5053 13.7208C15.2285 14.1413 14.9524 14.46 14.7482 14.6713C14.6462 14.7767 14.5627 14.8549 14.5067 14.9051C14.4787 14.9302 14.4577 14.9482 14.4447 14.9591L14.4308 14.9706L14.4297 14.9715C14.1709 15.1779 14.1276 15.5549 14.3333 15.8145C14.5394 16.0747 14.9183 16.1178 15.1784 15.9117L15.2181 15.8791C15.2403 15.8604 15.271 15.8341 15.3088 15.8002C15.3843 15.7325 15.4887 15.6344 15.6123 15.5066C15.8592 15.2512 16.1846 14.8748 16.5092 14.3817C17.159 13.3945 17.8111 11.9305 17.8111 10.0378C17.8111 8.14516 17.1591 6.6789 16.5096 5.68963C16.1851 5.19536 15.8599 4.81781 15.6131 4.56159C15.4896 4.4333 15.3852 4.33489 15.3097 4.26694C15.272 4.23295 15.2414 4.20652 15.2191 4.18774L15.1922 4.1653L15.1837 4.15838L15.1807 4.156L15.1787 4.15434ZM13.2274 7.49687L13.2256 7.49542Z" fill="#0C0C0C"/>
</svg>
