<svg width="28" height="28" viewBox="0 0 28 28" fill="none" xmlns="http://www.w3.org/2000/svg">
<g clip-path="url(#clip0_61_86)">
<path d="M1.52877 17.8355C3.17604 23.3302 8.27166 27.3336 14.3025 27.3336C21.6661 27.3336 27.6358 21.3639 27.6358 14.0003C27.6358 6.63649 21.6661 0.666931 14.3025 0.666931C7.23624 0.666931 1.45438 6.16381 0.997726 13.1144C1.86057 14.5634 2.19727 15.4595 1.5289 17.8355H1.52877Z" fill="url(#paint0_linear_61_86)"/>
<path d="M13.6159 10.6607C13.6159 10.6831 13.6159 10.7056 13.617 10.7266L10.3543 15.4662C9.8258 15.4421 9.29544 15.5348 8.79255 15.742C8.57087 15.8324 8.36314 15.9434 8.16823 16.0716L1.00383 13.1223C1.00388 13.1223 0.838049 15.8496 1.52892 17.8822L6.59376 19.972C6.84806 21.1085 7.62769 22.1054 8.7779 22.5849C10.6598 23.3712 12.8296 22.475 13.6125 20.5924C13.8162 20.1002 13.9112 19.5841 13.8974 19.069L18.5658 15.7328C18.6036 15.734 18.6425 15.7351 18.6803 15.7351C21.474 15.7351 23.7447 13.4576 23.7447 10.6607C23.7447 7.86355 21.474 5.58807 18.6803 5.58807C15.8877 5.58807 13.6159 7.86355 13.6159 10.6607ZM12.8331 20.265C12.2272 21.7197 10.5555 22.4098 9.10248 21.8044C8.43215 21.5251 7.92606 21.0135 7.6341 20.4035L9.28274 21.0868C10.3543 21.5331 11.5837 21.025 12.0292 19.9537C12.476 18.8813 11.9691 17.6499 10.8981 17.2035L9.19381 16.4974C9.85144 16.2479 10.599 16.2387 11.2975 16.5294C12.0017 16.8224 12.5481 17.374 12.8376 18.0791C13.1272 18.7841 13.1261 19.5623 12.8331 20.265ZM18.6803 14.0413C16.8205 14.0413 15.3063 12.5248 15.3063 10.6607C15.3063 8.79803 16.8205 7.28112 18.6803 7.28112C20.5412 7.28112 22.0554 8.79803 22.0554 10.6607C22.0554 12.5248 20.5412 14.0413 18.6803 14.0413ZM16.1521 10.6555C16.1521 9.25319 17.2874 8.1158 18.686 8.1158C20.0857 8.1158 21.2211 9.25319 21.2211 10.6555C21.2211 12.058 20.0857 13.1944 18.686 13.1944C17.2874 13.1944 16.1521 12.058 16.1521 10.6555Z" fill="white"/>
</g>
<defs>
<linearGradient id="paint0_linear_61_86" x1="14.3168" y1="0.666931" x2="14.3168" y2="27.3336" gradientUnits="userSpaceOnUse">
<stop stop-color="#111D2E"/>
<stop offset="0.21248" stop-color="#051839"/>
<stop offset="0.40695" stop-color="#0A1B48"/>
<stop offset="0.5811" stop-color="#132E62"/>
<stop offset="0.7376" stop-color="#144B7E"/>
<stop offset="0.87279" stop-color="#136497"/>
<stop offset="1" stop-color="#1387B8"/>
</linearGradient>
<clipPath id="clip0_61_86">
<rect width="26.6667" height="26.6667" fill="white" transform="translate(0.96994 0.66684)"/>
</clipPath>
</defs>
</svg>
