<svg width="28" height="28" viewBox="0 0 28 28" fill="none" xmlns="http://www.w3.org/2000/svg">
<g clip-path="url(#clip0_61_80)">
<path d="M21.1107 7.42216V6.82368C21.1107 5.19881 20.3371 3.67269 19.0279 2.71064C19.6938 3.5934 20.0528 4.66916 20.0513 5.77485V7.42216H18.989V5.77485C18.9905 2.95452 16.7028 0.66684 13.8825 0.66684C11.0622 0.66684 8.77298 2.95452 8.77298 5.77485V7.42216H0.460083V25.387C0.460083 26.4612 1.33087 27.3335 2.40664 27.3335H25.3584C26.4326 27.3335 27.3049 26.4627 27.3049 25.387V7.42216H21.1107ZM9.83229 5.77485C9.83079 3.53953 11.6427 1.72615 13.8795 1.72615H13.8825C16.0984 1.77402 17.8834 3.55898 17.9327 5.77634V7.42365H11.9524V6.82517C11.9509 4.58986 13.7628 2.77647 15.9996 2.77498H16.0026C16.1896 2.77498 16.3752 2.78844 16.5592 2.81687C16.052 2.58346 15.5014 2.46227 14.9433 2.46078C13.6341 2.45928 12.4043 3.09367 11.6457 4.16045C11.1534 4.96241 10.8931 5.88407 10.8946 6.82368V7.42216H9.83229V5.77485Z" fill="#2F2F2F"/>
<path d="M13.4481 11.7462H8.25334V16.9425H13.4481V11.7462Z" fill="#F25022"/>
<path d="M19.5095 11.7462H14.3147V16.9425H19.5095V11.7462Z" fill="#7FBA00"/>
<path d="M13.4481 17.8073H8.25334V23.0021H13.4481V17.8073Z" fill="#00A4EF"/>
<path d="M19.5095 17.8073H14.3147V23.0021H19.5095V17.8073Z" fill="#FFB900"/>
</g>
<defs>
<clipPath id="clip0_61_80">
<rect width="26.8432" height="26.6667" fill="white" transform="translate(0.460083 0.66684)"/>
</clipPath>
</defs>
</svg>
