<svg width="20" height="20" viewBox="0 0 20 20" fill="none" xmlns="http://www.w3.org/2000/svg">
<g clip-path="url(#clip0_61_17)">
<path d="M18.5777 6.88785C19.0697 7.37989 19.5347 7.94249 19.9394 8.52894C20.1279 8.80209 20.0593 9.17634 19.7862 9.36487C19.513 9.55339 19.1388 9.48478 18.9503 9.21163C18.5859 8.68371 18.1672 8.17714 17.7278 7.73771C13.6858 3.69571 7.13245 3.69571 3.09046 7.73771C2.67191 8.15625 2.25776 8.66266 1.88015 9.20698C1.69097 9.47967 1.31655 9.54738 1.04386 9.3582C0.771162 9.16902 0.703458 8.7946 0.892636 8.5219C1.30905 7.92166 1.76807 7.36038 2.2406 6.88785C6.75196 2.37649 14.0663 2.37649 18.5777 6.88785ZM15.8907 9.25968C16.4583 9.82737 16.9505 10.5169 17.3255 11.2501C17.4766 11.5455 17.3596 11.9076 17.0641 12.0587C16.7686 12.2099 16.4066 12.0928 16.2554 11.7974C15.936 11.1728 15.517 10.5857 15.0408 10.1095C12.4828 7.55154 8.33546 7.55154 5.77746 10.1095C5.28064 10.6064 4.87686 11.1652 4.56604 11.7797C4.41624 12.0759 4.05472 12.1945 3.75856 12.0447C3.4624 11.8949 3.34375 11.5334 3.49355 11.2373C3.86162 10.5096 4.34042 9.84687 4.9276 9.25968C7.95497 6.23232 12.8633 6.23232 15.8907 9.25968ZM13.8367 12.261C14.2625 12.6867 14.6133 13.2105 14.8575 13.7678C14.9907 14.0717 14.8523 14.4262 14.5483 14.5594C14.2443 14.6926 13.8899 14.5541 13.7567 14.2501C13.5712 13.8268 13.3041 13.4281 12.9868 13.1108C11.5632 11.6872 9.25506 11.6872 7.83144 13.1108C7.51571 13.4266 7.25994 13.8102 7.07298 14.2375C6.93994 14.5416 6.5856 14.6802 6.28154 14.5471C5.97749 14.4141 5.83885 14.0598 5.9719 13.7557C6.21724 13.195 6.55656 12.686 6.98158 12.261C8.87457 10.368 11.9437 10.368 13.8367 12.261ZM11.5235 14.5837C12.1329 15.1932 12.1329 16.1813 11.5235 16.7907C10.914 17.4001 9.92595 17.4001 9.31652 16.7907C8.70709 16.1813 8.70709 15.1932 9.31652 14.5837C9.92595 13.9743 10.914 13.9743 11.5235 14.5837Z" fill="#0C0C0C"/>
</g>
<defs>
<clipPath id="clip0_61_17">
<rect width="19.23" height="19.23" fill="white" transform="translate(0.666748 0.333252)"/>
</clipPath>
</defs>
</svg>
